<svg width="128" height="128" viewBox="0 0 128 128" xmlns="http://www.w3.org/2000/svg" shape-rendering="crispEdges">
  <rect width="128" height="128" fill="#f8fafc"/>
  <rect x="36" y="20" width="56" height="8" fill="#d7263d"/>
  <rect x="28" y="28" width="72" height="8" fill="#d7263d"/>
  <rect x="28" y="36" width="16" height="8" fill="#d7263d"/>
  <rect x="84" y="36" width="16" height="8" fill="#d7263d"/>
  <rect x="44" y="36" width="40" height="8" fill="#b71f35"/>

  <rect x="44" y="44" width="40" height="8" fill="#f4b183"/>
  <rect x="36" y="52" width="56" height="8" fill="#f4b183"/>
  <rect x="28" y="60" width="72" height="8" fill="#f4b183"/>

  <rect x="44" y="52" width="8" height="8" fill="#1f2937"/>
  <rect x="76" y="52" width="8" height="8" fill="#1f2937"/>

  <rect x="36" y="68" width="16" height="8" fill="#8b4513"/>
  <rect x="76" y="68" width="16" height="8" fill="#8b4513"/>
  <rect x="52" y="68" width="24" height="8" fill="#7c3f10"/>

  <rect x="44" y="76" width="40" height="8" fill="#0f766e"/>
  <rect x="36" y="84" width="56" height="8" fill="#0f766e"/>
  <rect x="28" y="92" width="24" height="8" fill="#0f766e"/>
  <rect x="76" y="92" width="24" height="8" fill="#0f766e"/>

  <rect x="44" y="92" width="16" height="16" fill="#1e40af"/>
  <rect x="68" y="92" width="16" height="16" fill="#1e40af"/>
  <rect x="52" y="100" width="24" height="8" fill="#2563eb"/>

  <rect x="36" y="108" width="24" height="8" fill="#7c2d12"/>
  <rect x="68" y="108" width="24" height="8" fill="#7c2d12"/>

  <rect x="16" y="112" width="96" height="8" fill="#e2e8f0"/>
  <rect x="20" y="116" width="88" height="4" fill="#cbd5e1"/>
</svg>